<svg width="390" height="844" viewBox="0 0 390 844" fill="none" xmlns="http://www.w3.org/2000/svg">
<path d="M256.108 752.277C252.221 752.277 249.07 748.64 249.07 744.153C249.07 739.666 252.221 736.029 256.108 736.029C259.995 736.029 263.146 739.666 263.146 744.153C263.146 748.626 259.995 752.278 256.108 752.277Z" stroke="#04D361" stroke-width="2" stroke-miterlimit="10" stroke-linecap="round" stroke-linejoin="round"/>
<path d="M251.253 750.026L246.275 755.758" stroke="#04D361" stroke-width="2" stroke-miterlimit="10" stroke-linecap="round" stroke-linejoin="round"/>
<path d="M255.32 142.956L247.916 151.503" stroke="#04D361" stroke-width="2" stroke-miterlimit="10" stroke-linecap="round" stroke-linejoin="round"/>
<path d="M255.32 151.503L247.916 142.956" stroke="#04D361" stroke-width="2" stroke-miterlimit="10" stroke-linecap="round" stroke-linejoin="round"/>
<path d="M117.442 699.531L110.038 708.079" stroke="#04D361" stroke-width="2" stroke-miterlimit="10" stroke-linecap="round" stroke-linejoin="round"/>
<path d="M117.442 708.079L110.038 699.531" stroke="#04D361" stroke-width="2" stroke-miterlimit="10" stroke-linecap="round" stroke-linejoin="round"/>
<path d="M29.3945 210.8L18.9237 210.8" stroke="#04D361" stroke-width="2" stroke-miterlimit="10" stroke-linecap="round" stroke-linejoin="round"/>
<path d="M24.1603 216.859L24.1603 204.757" stroke="#04D361" stroke-width="2" stroke-miterlimit="10" stroke-linecap="round" stroke-linejoin="round"/>
<path d="M200.24 14.6921C196.733 14.6921 193.877 11.4083 193.877 7.34606C193.877 3.29798 196.721 6.06032e-05 200.24 6.0757e-05C203.747 6.09103e-05 206.603 3.28382 206.603 7.34606C206.591 11.4083 203.747 14.6921 200.24 14.6921Z" stroke="#04D361" stroke-width="2" stroke-miterlimit="10" stroke-linecap="round" stroke-linejoin="round"/>
<path d="M383.637 391.831C380.13 391.831 377.273 388.547 377.273 384.485C377.273 380.437 380.118 377.139 383.637 377.139C387.143 377.139 390 380.422 390 384.485C389.988 388.547 387.143 391.831 383.637 391.831Z" stroke="#04D361" stroke-width="2" stroke-miterlimit="10" stroke-linecap="round" stroke-linejoin="round"/>
<path d="M6.36337 480.033C2.85673 480.033 -7.42035e-05 476.749 -7.40259e-05 472.687C-7.3849e-05 468.638 2.84447 465.34 6.36337 465.34C9.87 465.34 12.7268 468.624 12.7268 472.687C12.7145 476.749 9.87 480.033 6.36337 480.033Z" stroke="#04D361" stroke-width="2" stroke-miterlimit="10" stroke-linecap="round" stroke-linejoin="round"/>
<path d="M114.426 10.2645C114.426 11.7338 115.458 12.925 116.731 12.925C118.004 12.925 119.036 11.7338 119.036 10.2645C119.036 8.7951 118.004 7.60394 116.731 7.60394C115.458 7.60394 114.426 8.7951 114.426 10.2645Z" fill="#9871F5"/>
<path d="M114.426 28.8486C114.426 30.318 115.458 31.5091 116.731 31.5091C118.004 31.5091 119.036 30.318 119.036 28.8486C119.036 27.3793 118.004 26.1881 116.731 26.1881C115.458 26.1881 114.426 27.3793 114.426 28.8486Z" fill="#9871F5"/>
<path d="M114.426 47.416C114.426 48.8853 115.458 50.0765 116.731 50.0765C118.004 50.0765 119.036 48.8853 119.036 47.416C119.036 45.9466 118.004 44.7554 116.731 44.7554C115.458 44.7554 114.426 45.9466 114.426 47.416Z" fill="#9871F5"/>
<path d="M114.426 65.9997C114.426 67.469 115.458 68.6602 116.731 68.6602C118.004 68.6602 119.036 67.469 119.036 65.9997C119.036 64.5303 118.004 63.3391 116.731 63.3391C115.458 63.3391 114.426 64.5303 114.426 65.9997Z" fill="#9871F5"/>
<path d="M114.426 84.5685C114.426 86.0378 115.458 87.229 116.731 87.229C118.004 87.229 119.036 86.0378 119.036 84.5685C119.036 83.0991 118.004 81.908 116.731 81.908C115.458 81.908 114.426 83.0991 114.426 84.5685Z" fill="#9871F5"/>
<path d="M114.426 103.151C114.426 104.621 115.458 105.812 116.731 105.812C118.004 105.812 119.036 104.621 119.036 103.151C119.036 101.682 118.004 100.491 116.731 100.491C115.458 100.491 114.426 101.682 114.426 103.151Z" fill="#9871F5"/>
<path d="M98.34 10.2642C98.34 11.7336 99.3718 12.9247 100.645 12.9247C101.918 12.9247 102.949 11.7336 102.949 10.2642C102.949 8.79482 101.918 7.60367 100.645 7.60367C99.3718 7.60367 98.34 8.79482 98.34 10.2642Z" fill="#9871F5"/>
<path d="M98.34 28.8484C98.34 30.3178 99.3718 31.509 100.645 31.509C101.918 31.509 102.949 30.3178 102.949 28.8484C102.949 27.3791 101.918 26.1879 100.645 26.1879C99.3718 26.1879 98.34 27.3791 98.34 28.8484Z" fill="#9871F5"/>
<path d="M98.34 47.4164C98.34 48.8857 99.3718 50.0769 100.645 50.0769C101.918 50.0769 102.949 48.8857 102.949 47.4164C102.949 45.947 101.918 44.7559 100.645 44.7559C99.3718 44.7559 98.34 45.947 98.34 47.4164Z" fill="#9871F5"/>
<path d="M98.34 65.9999C98.34 67.4693 99.3718 68.6604 100.645 68.6604C101.918 68.6604 102.949 67.4693 102.949 65.9999C102.949 64.5305 101.918 63.3394 100.645 63.3394C99.3718 63.3394 98.34 64.5305 98.34 65.9999Z" fill="#9871F5"/>
<path d="M98.34 84.5686C98.34 86.0379 99.3718 87.2291 100.645 87.2291C101.918 87.2291 102.949 86.0379 102.949 84.5686C102.949 83.0992 101.918 81.9081 100.645 81.9081C99.3718 81.9081 98.34 83.0992 98.34 84.5686Z" fill="#9871F5"/>
<path d="M98.34 103.151C98.34 104.621 99.3718 105.812 100.645 105.812C101.918 105.812 102.949 104.621 102.949 103.151C102.949 101.682 101.918 100.491 100.645 100.491C99.3718 100.491 98.34 101.682 98.34 103.151Z" fill="#9871F5"/>
<path d="M82.2413 10.2642C82.2413 11.7336 83.2731 12.9247 84.5459 12.9247C85.8187 12.9247 86.8506 11.7336 86.8506 10.2642C86.8506 8.79482 85.8187 7.60367 84.5459 7.60367C83.2731 7.60367 82.2413 8.79482 82.2413 10.2642Z" fill="#9871F5"/>
<path d="M82.2413 28.8484C82.2413 30.3178 83.2731 31.509 84.5459 31.509C85.8187 31.509 86.8506 30.3178 86.8506 28.8484C86.8506 27.3791 85.8187 26.1879 84.5459 26.1879C83.2731 26.1879 82.2413 27.3791 82.2413 28.8484Z" fill="#9871F5"/>
<path d="M82.2413 47.4164C82.2413 48.8858 83.2731 50.0769 84.5459 50.0769C85.8187 50.0769 86.8506 48.8858 86.8506 47.4164C86.8506 45.947 85.8187 44.7559 84.5459 44.7559C83.2731 44.7559 82.2413 45.947 82.2413 47.4164Z" fill="#9871F5"/>
<path d="M82.2414 65.9999C82.2414 67.4693 83.2732 68.6605 84.546 68.6605C85.8189 68.6605 86.8507 67.4693 86.8507 65.9999C86.8507 64.5306 85.8189 63.3394 84.546 63.3394C83.2732 63.3394 82.2414 64.5306 82.2414 65.9999Z" fill="#9871F5"/>
<path d="M82.2413 84.5686C82.2413 86.0379 83.2731 87.2291 84.5459 87.2291C85.8187 87.2291 86.8506 86.0379 86.8506 84.5686C86.8506 83.0992 85.8187 81.9081 84.5459 81.9081C83.2731 81.9081 82.2413 83.0992 82.2413 84.5686Z" fill="#9871F5"/>
<path d="M82.2413 103.151C82.2413 104.621 83.2731 105.812 84.5459 105.812C85.8187 105.812 86.8506 104.621 86.8506 103.151C86.8506 101.682 85.8187 100.491 84.5459 100.491C83.2731 100.491 82.2413 101.682 82.2413 103.151Z" fill="#9871F5"/>
<path d="M66.1551 10.2642C66.1551 11.7336 67.1869 12.9247 68.4597 12.9247C69.7326 12.9247 70.7644 11.7336 70.7644 10.2642C70.7644 8.79482 69.7326 7.60367 68.4597 7.60367C67.1869 7.60367 66.1551 8.79482 66.1551 10.2642Z" fill="#9871F5"/>
<path d="M66.1551 28.8484C66.1551 30.3178 67.1869 31.509 68.4597 31.509C69.7326 31.509 70.7644 30.3178 70.7644 28.8484C70.7644 27.3791 69.7326 26.1879 68.4597 26.1879C67.1869 26.1879 66.1551 27.3791 66.1551 28.8484Z" fill="#9871F5"/>
<path d="M66.1551 47.4164C66.1551 48.8858 67.1869 50.0769 68.4597 50.0769C69.7326 50.0769 70.7644 48.8858 70.7644 47.4164C70.7644 45.947 69.7326 44.7559 68.4597 44.7559C67.1869 44.7559 66.1551 45.947 66.1551 47.4164Z" fill="#9871F5"/>
<path d="M66.1551 65.9999C66.1551 67.4693 67.1869 68.6605 68.4597 68.6605C69.7326 68.6605 70.7644 67.4693 70.7644 65.9999C70.7644 64.5306 69.7326 63.3394 68.4597 63.3394C67.1869 63.3394 66.1551 64.5306 66.1551 65.9999Z" fill="#9871F5"/>
<path d="M66.1551 84.5686C66.1551 86.0379 67.1869 87.2291 68.4597 87.2291C69.7326 87.2291 70.7644 86.0379 70.7644 84.5686C70.7644 83.0992 69.7326 81.9081 68.4597 81.9081C67.1869 81.9081 66.1551 83.0992 66.1551 84.5686Z" fill="#9871F5"/>
<path d="M66.1551 103.151C66.1551 104.621 67.1869 105.812 68.4597 105.812C69.7326 105.812 70.7644 104.621 70.7644 103.151C70.7644 101.682 69.7326 100.491 68.4597 100.491C67.1869 100.491 66.1551 101.682 66.1551 103.151Z" fill="#9871F5"/>
<path d="M340.476 674.935C340.476 676.404 341.507 677.595 342.78 677.595C344.053 677.595 345.085 676.404 345.085 674.935C345.085 673.466 344.053 672.274 342.78 672.274C341.507 672.274 340.476 673.466 340.476 674.935Z" fill="#9871F5"/>
<path d="M340.476 693.506C340.476 694.975 341.508 696.166 342.781 696.166C344.053 696.166 345.085 694.975 345.085 693.506C345.085 692.036 344.053 690.845 342.781 690.845C341.508 690.845 340.476 692.036 340.476 693.506Z" fill="#9871F5"/>
<path d="M340.476 712.086C340.476 713.556 341.508 714.747 342.781 714.747C344.053 714.747 345.085 713.556 345.085 712.086C345.085 710.617 344.053 709.426 342.781 709.426C341.508 709.426 340.476 710.617 340.476 712.086Z" fill="#9871F5"/>
<path d="M324.377 674.935C324.377 676.404 325.409 677.595 326.682 677.595C327.955 677.595 328.987 676.404 328.987 674.935C328.987 673.465 327.955 672.274 326.682 672.274C325.409 672.274 324.377 673.465 324.377 674.935Z" fill="#9871F5"/>
<path d="M324.377 693.506C324.377 694.975 325.409 696.166 326.682 696.166C327.955 696.166 328.987 694.975 328.987 693.506C328.987 692.036 327.955 690.845 326.682 690.845C325.409 690.845 324.377 692.036 324.377 693.506Z" fill="#9871F5"/>
<path d="M324.377 712.086C324.377 713.556 325.409 714.747 326.682 714.747C327.955 714.747 328.987 713.556 328.987 712.086C328.987 710.617 327.955 709.426 326.682 709.426C325.409 709.426 324.377 710.617 324.377 712.086Z" fill="#9871F5"/>
<path d="M345.366 191.727C345.366 193.197 346.398 194.388 347.671 194.388C348.943 194.388 349.975 193.197 349.975 191.727C349.975 190.258 348.943 189.067 347.671 189.067C346.398 189.067 345.366 190.258 345.366 191.727Z" fill="#9871F5"/>
<path d="M345.366 210.296C345.366 211.765 346.398 212.956 347.671 212.956C348.944 212.956 349.975 211.765 349.975 210.296C349.975 208.826 348.944 207.635 347.671 207.635C346.398 207.635 345.366 208.826 345.366 210.296Z" fill="#9871F5"/>
<path d="M345.366 228.878C345.366 230.348 346.398 231.539 347.671 231.539C348.944 231.539 349.975 230.348 349.975 228.878C349.975 227.409 348.944 226.218 347.671 226.218C346.398 226.218 345.366 227.409 345.366 228.878Z" fill="#9871F5"/>
<path d="M329.267 191.727C329.267 193.196 330.299 194.388 331.572 194.388C332.845 194.388 333.877 193.196 333.877 191.727C333.877 190.258 332.845 189.066 331.572 189.066C330.299 189.066 329.267 190.258 329.267 191.727Z" fill="#9871F5"/>
<path d="M329.267 210.296C329.267 211.765 330.299 212.956 331.572 212.956C332.845 212.956 333.877 211.765 333.877 210.296C333.877 208.826 332.845 207.635 331.572 207.635C330.299 207.635 329.267 208.826 329.267 210.296Z" fill="#9871F5"/>
<path d="M329.267 228.879C329.267 230.349 330.299 231.54 331.572 231.54C332.845 231.54 333.877 230.349 333.877 228.879C333.877 227.41 332.845 226.219 331.572 226.219C330.299 226.219 329.267 227.41 329.267 228.879Z" fill="#9871F5"/>
<path d="M140.626 841.339C140.626 842.808 141.658 843.999 142.931 843.999C144.203 843.999 145.235 842.808 145.235 841.339C145.235 839.869 144.203 838.678 142.931 838.678C141.658 838.678 140.626 839.869 140.626 841.339Z" fill="#9871F5"/>
<path d="M124.527 841.339C124.527 842.809 125.559 844 126.832 844C128.105 844 129.137 842.809 129.137 841.339C129.137 839.87 128.105 838.679 126.832 838.679C125.559 838.679 124.527 839.87 124.527 841.339Z" fill="#9871F5"/>
<path d="M108.441 841.339C108.441 842.809 109.473 844 110.745 844C112.018 844 113.05 842.809 113.05 841.339C113.05 839.87 112.018 838.679 110.745 838.679C109.473 838.679 108.441 839.87 108.441 841.339Z" fill="#9871F5"/>
<path d="M92.3421 841.339C92.3421 842.809 93.3739 844 94.6468 844C95.9196 844 96.9514 842.809 96.9514 841.339C96.9514 839.87 95.9196 838.679 94.6468 838.679C93.3739 838.679 92.3421 839.87 92.3421 841.339Z" fill="#9871F5"/>
<path d="M76.2559 841.339C76.2559 842.809 77.2877 844 78.5606 844C79.8334 844 80.8652 842.809 80.8652 841.339C80.8652 839.87 79.8334 838.679 78.5606 838.679C77.2877 838.679 76.2559 839.87 76.2559 841.339Z" fill="#9871F5"/>
<path d="M60.1573 841.339C60.1573 842.809 61.1891 844 62.4619 844C63.7348 844 64.7666 842.809 64.7666 841.339C64.7666 839.87 63.7348 838.679 62.4619 838.679C61.1891 838.679 60.1573 839.87 60.1573 841.339Z" fill="#9871F5"/>
<path d="M44.0707 841.339C44.0707 842.809 45.1026 844 46.3754 844C47.6482 844 48.6801 842.809 48.6801 841.339C48.6801 839.87 47.6482 838.679 46.3754 838.679C45.1026 838.679 44.0707 839.87 44.0707 841.339Z" fill="#9871F5"/>
<path d="M140.626 822.757C140.626 824.226 141.658 825.417 142.931 825.417C144.203 825.417 145.235 824.226 145.235 822.757C145.235 821.287 144.203 820.096 142.931 820.096C141.658 820.096 140.626 821.287 140.626 822.757Z" fill="#9871F5"/>
<path d="M124.527 822.757C124.527 824.226 125.559 825.417 126.832 825.417C128.105 825.417 129.137 824.226 129.137 822.757C129.137 821.287 128.105 820.096 126.832 820.096C125.559 820.096 124.527 821.287 124.527 822.757Z" fill="#9871F5"/>
<path d="M108.441 822.757C108.441 824.226 109.473 825.417 110.745 825.417C112.018 825.417 113.05 824.226 113.05 822.757C113.05 821.287 112.018 820.096 110.745 820.096C109.473 820.096 108.441 821.287 108.441 822.757Z" fill="#9871F5"/>
<path d="M92.3421 822.757C92.3421 824.226 93.3739 825.417 94.6468 825.417C95.9196 825.417 96.9514 824.226 96.9514 822.757C96.9514 821.287 95.9196 820.096 94.6468 820.096C93.3739 820.096 92.3421 821.287 92.3421 822.757Z" fill="#9871F5"/>
<path d="M76.2559 822.757C76.2559 824.226 77.2877 825.417 78.5606 825.417C79.8334 825.417 80.8652 824.226 80.8652 822.757C80.8652 821.287 79.8334 820.096 78.5606 820.096C77.2877 820.096 76.2559 821.287 76.2559 822.757Z" fill="#9871F5"/>
<path d="M60.1573 822.757C60.1573 824.226 61.1891 825.417 62.4619 825.417C63.7348 825.417 64.7666 824.226 64.7666 822.757C64.7666 821.287 63.7348 820.096 62.4619 820.096C61.1891 820.096 60.1573 821.287 60.1573 822.757Z" fill="#9871F5"/>
<path d="M44.0707 822.757C44.0707 824.226 45.1026 825.417 46.3754 825.417C47.6482 825.417 48.6801 824.226 48.6801 822.757C48.6801 821.287 47.6482 820.096 46.3754 820.096C45.1026 820.096 44.0707 821.287 44.0707 822.757Z" fill="#9871F5"/>
<path d="M140.626 804.187C140.626 805.656 141.658 806.848 142.931 806.848C144.203 806.848 145.235 805.656 145.235 804.187C145.235 802.718 144.203 801.527 142.931 801.527C141.658 801.527 140.626 802.718 140.626 804.187Z" fill="#9871F5"/>
<path d="M124.527 804.187C124.527 805.657 125.559 806.848 126.832 806.848C128.105 806.848 129.137 805.657 129.137 804.187C129.137 802.718 128.105 801.527 126.832 801.527C125.559 801.527 124.527 802.718 124.527 804.187Z" fill="#9871F5"/>
<path d="M108.441 804.187C108.441 805.657 109.473 806.848 110.745 806.848C112.018 806.848 113.05 805.657 113.05 804.187C113.05 802.718 112.018 801.527 110.745 801.527C109.473 801.527 108.441 802.718 108.441 804.187Z" fill="#9871F5"/>
<path d="M92.3421 804.187C92.3421 805.657 93.3739 806.848 94.6468 806.848C95.9196 806.848 96.9514 805.657 96.9514 804.187C96.9514 802.718 95.9196 801.527 94.6468 801.527C93.3739 801.527 92.3421 802.718 92.3421 804.187Z" fill="#9871F5"/>
<path d="M76.2559 804.187C76.2559 805.657 77.2877 806.848 78.5606 806.848C79.8334 806.848 80.8652 805.657 80.8652 804.187C80.8652 802.718 79.8334 801.527 78.5606 801.527C77.2877 801.527 76.2559 802.718 76.2559 804.187Z" fill="#9871F5"/>
<path d="M60.1573 804.187C60.1573 805.657 61.1891 806.848 62.4619 806.848C63.7348 806.848 64.7666 805.657 64.7666 804.187C64.7666 802.718 63.7348 801.527 62.4619 801.527C61.1891 801.527 60.1573 802.718 60.1573 804.187Z" fill="#9871F5"/>
<path d="M44.0707 804.187C44.0707 805.657 45.1026 806.848 46.3754 806.848C47.6482 806.848 48.6801 805.657 48.6801 804.187C48.6801 802.718 47.6482 801.527 46.3754 801.527C45.1026 801.527 44.0707 802.718 44.0707 804.187Z" fill="#9871F5"/>
<path d="M140.625 785.605C140.625 787.074 141.657 788.265 142.93 788.265C144.202 788.265 145.234 787.074 145.234 785.605C145.234 784.136 144.202 782.944 142.93 782.944C141.657 782.944 140.625 784.136 140.625 785.605Z" fill="#9871F5"/>
<path d="M124.527 785.604C124.527 787.074 125.559 788.265 126.832 788.265C128.105 788.265 129.137 787.074 129.137 785.604C129.137 784.135 128.105 782.944 126.832 782.944C125.559 782.944 124.527 784.135 124.527 785.604Z" fill="#9871F5"/>
<path d="M108.441 785.604C108.441 787.074 109.473 788.265 110.745 788.265C112.018 788.265 113.05 787.074 113.05 785.604C113.05 784.135 112.018 782.944 110.745 782.944C109.473 782.944 108.441 784.135 108.441 785.604Z" fill="#9871F5"/>
<path d="M92.3421 785.604C92.3421 787.074 93.3739 788.265 94.6468 788.265C95.9196 788.265 96.9514 787.074 96.9514 785.604C96.9514 784.135 95.9196 782.944 94.6468 782.944C93.3739 782.944 92.3421 784.135 92.3421 785.604Z" fill="#9871F5"/>
<path d="M76.2559 785.604C76.2559 787.074 77.2877 788.265 78.5606 788.265C79.8334 788.265 80.8652 787.074 80.8652 785.604C80.8652 784.135 79.8334 782.944 78.5606 782.944C77.2877 782.944 76.2559 784.135 76.2559 785.604Z" fill="#9871F5"/>
<path d="M60.1573 785.604C60.1573 787.074 61.1891 788.265 62.4619 788.265C63.7348 788.265 64.7666 787.074 64.7666 785.604C64.7666 784.135 63.7348 782.944 62.4619 782.944C61.1891 782.944 60.1573 784.135 60.1573 785.604Z" fill="#9871F5"/>
<path d="M44.0707 785.604C44.0707 787.074 45.1026 788.265 46.3754 788.265C47.6482 788.265 48.6801 787.074 48.6801 785.604C48.6801 784.135 47.6482 782.944 46.3754 782.944C45.1026 782.944 44.0707 784.135 44.0707 785.604Z" fill="#9871F5"/>
</svg>
